<svg width="131" height="23" viewBox="0 0 131 23" fill="none" xmlns="http://www.w3.org/2000/svg">
<path d="M11.5 0L14.0819 7.9463H22.4371L15.6776 12.8574L18.2595 20.8037L11.5 15.8926L4.74047 20.8037L7.32238 12.8574L0.56285 7.9463H8.91809L11.5 0Z" fill="#F2A156"/>
<path d="M38.5 0L41.0819 7.9463H49.4371L42.6776 12.8574L45.2595 20.8037L38.5 15.8926L31.7405 20.8037L34.3224 12.8574L27.5628 7.9463H35.9181L38.5 0Z" fill="#F2A156"/>
<path d="M65.5 0L68.0819 7.9463H76.4371L69.6776 12.8574L72.2595 20.8037L65.5 15.8926L58.7405 20.8037L61.3224 12.8574L54.5628 7.9463H62.9181L65.5 0Z" fill="#F2A156"/>
<path d="M92.5 0L95.0819 7.9463H103.437L96.6776 12.8574L99.2595 20.8037L92.5 15.8926L85.7405 20.8037L88.3224 12.8574L81.5628 7.9463H89.9181L92.5 0Z" fill="#F2A156"/>
<path d="M119.5 0L122.082 7.9463H130.437L123.678 12.8574L126.26 20.8037L119.5 15.8926L112.74 20.8037L115.322 12.8574L108.563 7.9463H116.918L119.5 0Z" fill="url(#paint0_linear_140_217)"/>
<defs>
<linearGradient id="paint0_linear_140_217" x1="108" y1="11" x2="131" y2="11" gradientUnits="userSpaceOnUse">
<stop offset="0.260417" stop-color="#F2A156"/>
<stop offset="1" stop-color="#D4D4D4" stop-opacity="0"/>
</linearGradient>
</defs>
</svg>
