<svg width="100" height="24" viewBox="0 0 100 24" fill="none" xmlns="http://www.w3.org/2000/svg">
<path d="M0.594368 18.5311C0.429266 18.5311 0.288929 18.4733 0.173357 18.3578C0.0577857 18.2422 0 18.1019 0 17.9368V1.81454C0 1.63293 0.0577857 1.48434 0.173357 1.36877C0.288929 1.2532 0.429266 1.19541 0.594368 1.19541H11.3425C11.5241 1.19541 11.6727 1.2532 11.7883 1.36877C11.9039 1.48434 11.9616 1.63293 11.9616 1.81454V3.54812C11.9616 3.72973 11.9039 3.87832 11.7883 3.99389C11.6727 4.09295 11.5241 4.14248 11.3425 4.14248H3.39285V8.84789H10.8472C11.0288 8.84789 11.1774 8.90568 11.293 9.02125C11.4086 9.13682 11.4663 9.28541 11.4663 9.46702V11.2006C11.4663 11.3657 11.4086 11.506 11.293 11.6216C11.1774 11.7372 11.0288 11.795 10.8472 11.795H3.39285V17.9368C3.39285 18.1019 3.33506 18.2422 3.21949 18.3578C3.10392 18.4733 2.95533 18.5311 2.77372 18.5311H0.594368Z" fill="white"/>
<path d="M18.5436 18.7788C17.5365 18.7788 16.6614 18.5559 15.9185 18.1101C15.192 17.6478 14.6307 17.0039 14.2344 16.1784C13.8382 15.3364 13.6401 14.3458 13.6401 13.2066V6.24753C13.6401 6.08243 13.6979 5.9421 13.8134 5.82652C13.929 5.71095 14.0693 5.65317 14.2344 5.65317H16.4138C16.5954 5.65317 16.7357 5.71095 16.8348 5.82652C16.9504 5.9421 17.0082 6.08243 17.0082 6.24753V13.058C17.0082 15.1053 17.908 16.1289 19.7076 16.1289C20.5661 16.1289 21.243 15.8565 21.7383 15.3116C22.2501 14.7668 22.5061 14.0156 22.5061 13.058V6.24753C22.5061 6.08243 22.5638 5.9421 22.6794 5.82652C22.795 5.71095 22.9353 5.65317 23.1004 5.65317H25.2798C25.4449 5.65317 25.5852 5.71095 25.7008 5.82652C25.8164 5.9421 25.8741 6.08243 25.8741 6.24753V17.9368C25.8741 18.1019 25.8164 18.2422 25.7008 18.3578C25.5852 18.4733 25.4449 18.5311 25.2798 18.5311H23.2738C23.0922 18.5311 22.9436 18.4733 22.828 18.3578C22.7289 18.2422 22.6794 18.1019 22.6794 17.9368V16.9214C22.2336 17.4992 21.6805 17.9533 21.0201 18.2835C20.3597 18.6137 19.5342 18.7788 18.5436 18.7788Z" fill="white"/>
<path d="M29.1207 18.5311C28.9556 18.5311 28.8153 18.4733 28.6997 18.3578C28.5841 18.2422 28.5264 18.1019 28.5264 17.9368V6.2723C28.5264 6.09069 28.5841 5.9421 28.6997 5.82652C28.8153 5.71095 28.9556 5.65317 29.1207 5.65317H31.1267C31.2918 5.65317 31.4321 5.71095 31.5477 5.82652C31.6798 5.9421 31.7458 6.09069 31.7458 6.2723V7.28768C32.1256 6.75935 32.6126 6.35485 33.207 6.07418C33.8179 5.7935 34.5196 5.65317 35.312 5.65317H36.3274C36.509 5.65317 36.6494 5.71095 36.7484 5.82652C36.864 5.9421 36.9218 6.08243 36.9218 6.24753V8.03064C36.9218 8.19574 36.864 8.33608 36.7484 8.45165C36.6494 8.56722 36.509 8.625 36.3274 8.625H34.3957C33.6032 8.625 32.9841 8.84789 32.5383 9.29367C32.1091 9.72293 31.8944 10.3338 31.8944 11.1263V17.9368C31.8944 18.1019 31.8366 18.2422 31.7211 18.3578C31.6055 18.4733 31.4569 18.5311 31.2753 18.5311H29.1207Z" fill="white"/>
<path d="M38.8285 18.5311C38.6634 18.5311 38.5231 18.4733 38.4075 18.3578C38.2919 18.2422 38.2342 18.1019 38.2342 17.9368V6.24753C38.2342 6.08243 38.2919 5.9421 38.4075 5.82652C38.5231 5.71095 38.6634 5.65317 38.8285 5.65317H40.8593C41.0244 5.65317 41.1647 5.71095 41.2803 5.82652C41.3959 5.9421 41.4536 6.08243 41.4536 6.24753V7.26291C41.8829 6.73459 42.4278 6.29707 43.0882 5.95035C43.7651 5.58713 44.5988 5.40551 45.5895 5.40551C46.5966 5.40551 47.4716 5.63666 48.2146 6.09894C48.9575 6.54472 49.5271 7.18036 49.9234 8.00587C50.3361 8.83138 50.5425 9.82199 50.5425 10.9777V17.9368C50.5425 18.1019 50.4847 18.2422 50.3692 18.3578C50.2536 18.4733 50.1133 18.5311 49.9482 18.5311H47.7688C47.6037 18.5311 47.4634 18.4733 47.3478 18.3578C47.2322 18.2422 47.1744 18.1019 47.1744 17.9368V11.1263C47.1744 10.1687 46.935 9.41749 46.4562 8.87266C45.994 8.32782 45.317 8.0554 44.4255 8.0554C43.567 8.0554 42.8818 8.32782 42.37 8.87266C41.8582 9.41749 41.6022 10.1687 41.6022 11.1263V17.9368C41.6022 18.1019 41.5445 18.2422 41.4289 18.3578C41.3133 18.4733 41.173 18.5311 41.0079 18.5311H38.8285Z" fill="white"/>
<path d="M53.6635 18.5311C53.4984 18.5311 53.3581 18.4733 53.2425 18.3578C53.1269 18.2422 53.0692 18.1019 53.0692 17.9368V6.24753C53.0692 6.08243 53.1269 5.9421 53.2425 5.82652C53.3581 5.71095 53.4984 5.65317 53.6635 5.65317H55.7191C55.9007 5.65317 56.041 5.71095 56.1401 5.82652C56.2556 5.9421 56.3134 6.08243 56.3134 6.24753V17.9368C56.3134 18.1019 56.2556 18.2422 56.1401 18.3578C56.041 18.4733 55.9007 18.5311 55.7191 18.5311H53.6635ZM53.5645 3.52335C53.3994 3.52335 53.259 3.46557 53.1435 3.34999C53.0279 3.23442 52.9701 3.09409 52.9701 2.92898V1.14588C52.9701 0.980779 53.0279 0.840442 53.1435 0.72487C53.259 0.609299 53.3994 0.551514 53.5645 0.551514H55.8181C55.9997 0.551514 56.1483 0.609299 56.2639 0.72487C56.3795 0.840442 56.4372 0.980779 56.4372 1.14588V2.92898C56.4372 3.09409 56.3795 3.23442 56.2639 3.34999C56.1483 3.46557 55.9997 3.52335 55.8181 3.52335H53.5645Z" fill="white"/>
<path d="M68.1679 23.2365C68.0028 23.2365 67.8624 23.1788 67.7469 23.0632C67.6313 22.9476 67.5735 22.8073 67.5735 22.6422V17.0204C67.1773 17.5488 66.6654 17.978 66.0381 18.3082C65.4107 18.6219 64.6512 18.7788 63.7597 18.7788C62.9176 18.7788 62.1664 18.6302 61.506 18.333C60.8621 18.0358 60.3173 17.6313 59.8715 17.1195C59.4422 16.5912 59.112 15.9803 58.8809 15.2869C58.6497 14.5769 58.5177 13.8092 58.4846 12.9837C58.4681 12.6865 58.4599 12.3893 58.4599 12.0921C58.4599 11.795 58.4681 11.506 58.4846 11.2254C58.5342 10.3668 58.6663 9.5826 58.8809 8.87266C59.112 8.16272 59.4422 7.55184 59.8715 7.04002C60.3173 6.5117 60.8621 6.1072 61.506 5.82652C62.1664 5.54585 62.9176 5.40551 63.7597 5.40551C64.7172 5.40551 65.518 5.57887 66.1619 5.92559C66.8223 6.2723 67.3424 6.70982 67.7221 7.23815V6.24753C67.7221 6.08243 67.7799 5.9421 67.8955 5.82652C68.011 5.71095 68.1514 5.65317 68.3165 5.65317H70.2977C70.4628 5.65317 70.6031 5.71095 70.7187 5.82652C70.8343 5.9421 70.8921 6.08243 70.8921 6.24753V22.6422C70.8921 22.8073 70.8343 22.9476 70.7187 23.0632C70.6031 23.1788 70.4628 23.2365 70.2977 23.2365H68.1679ZM64.7007 16.1289C65.3611 16.1289 65.8977 15.9803 66.3105 15.6831C66.7232 15.3859 67.0287 15.0145 67.2268 14.5687C67.4414 14.1064 67.557 13.6276 67.5735 13.1323C67.6065 12.8186 67.623 12.4966 67.623 12.1664C67.623 11.8362 67.6065 11.5225 67.5735 11.2254C67.557 10.7135 67.4497 10.2182 67.2516 9.73944C67.0534 9.24414 66.748 8.83964 66.3352 8.52594C65.9225 8.21225 65.3776 8.0554 64.7007 8.0554C64.0073 8.0554 63.4542 8.21225 63.0415 8.52594C62.6287 8.82313 62.3315 9.21937 62.1499 9.71468C61.9848 10.21 61.8857 10.7548 61.8527 11.3492C61.8197 11.8445 61.8197 12.3398 61.8527 12.8351C61.8857 13.4295 61.9848 13.9743 62.1499 14.4696C62.3315 14.9649 62.6287 15.3694 63.0415 15.6831C63.4542 15.9803 64.0073 16.1289 64.7007 16.1289Z" fill="white"/>
<path d="M78.3528 18.7788C77.3457 18.7788 76.4706 18.5559 75.7277 18.1101C75.0012 17.6478 74.4399 17.0039 74.0436 16.1784C73.6474 15.3364 73.4493 14.3458 73.4493 13.2066V6.24753C73.4493 6.08243 73.5071 5.9421 73.6226 5.82652C73.7382 5.71095 73.8785 5.65317 74.0436 5.65317H76.223C76.4046 5.65317 76.5449 5.71095 76.644 5.82652C76.7596 5.9421 76.8174 6.08243 76.8174 6.24753V13.058C76.8174 15.1053 77.7172 16.1289 79.5168 16.1289C80.3753 16.1289 81.0522 15.8565 81.5475 15.3116C82.0593 14.7668 82.3153 14.0156 82.3153 13.058V6.24753C82.3153 6.08243 82.373 5.9421 82.4886 5.82652C82.6042 5.71095 82.7445 5.65317 82.9096 5.65317H85.089C85.2541 5.65317 85.3944 5.71095 85.51 5.82652C85.6256 5.9421 85.6833 6.08243 85.6833 6.24753V17.9368C85.6833 18.1019 85.6256 18.2422 85.51 18.3578C85.3944 18.4733 85.2541 18.5311 85.089 18.5311H83.083C82.9014 18.5311 82.7528 18.4733 82.6372 18.3578C82.5381 18.2422 82.4886 18.1019 82.4886 17.9368V16.9214C82.0428 17.4992 81.4897 17.9533 80.8293 18.2835C80.1689 18.6137 79.3434 18.7788 78.3528 18.7788Z" fill="white"/>
<path d="M93.883 18.7788C92.0503 18.7788 90.5974 18.2505 89.5243 17.1938C88.4511 16.1371 87.8733 14.6347 87.7907 12.6865C87.7742 12.5214 87.7659 12.315 87.7659 12.0674C87.7659 11.8032 87.7742 11.5968 87.7907 11.4482C87.8567 10.1935 88.1374 9.12031 88.6327 8.22876C89.1445 7.3207 89.8462 6.62727 90.7378 6.14847C91.6293 5.65317 92.6777 5.40551 93.883 5.40551C95.2203 5.40551 96.343 5.68619 97.2511 6.24753C98.1591 6.79237 98.8443 7.5601 99.3066 8.55071C99.7689 9.52481 100 10.6558 100 11.9436V12.4636C100 12.6287 99.9422 12.7691 99.8266 12.8846C99.7111 13.0002 99.5625 13.058 99.3809 13.058H91.1588C91.1588 13.058 91.1588 13.0828 91.1588 13.1323C91.1588 13.1818 91.1588 13.2231 91.1588 13.2561C91.1753 13.834 91.2826 14.3706 91.4807 14.8659C91.6954 15.3447 92.0008 15.7326 92.3971 16.0298C92.8098 16.327 93.2969 16.4756 93.8582 16.4756C94.3205 16.4756 94.7085 16.4096 95.0222 16.2775C95.3359 16.1289 95.5918 15.9638 95.7899 15.7822C95.988 15.6006 96.1284 15.452 96.2109 15.3364C96.3595 15.1383 96.4751 15.0227 96.5576 14.9897C96.6567 14.9402 96.797 14.9154 96.9786 14.9154H99.1085C99.2736 14.9154 99.4056 14.9649 99.5047 15.064C99.6203 15.163 99.6698 15.2869 99.6533 15.4355C99.6368 15.6996 99.4964 16.0216 99.2323 16.4013C98.9846 16.781 98.6214 17.1525 98.1426 17.5158C97.6638 17.879 97.0612 18.1844 96.3347 18.4321C95.6248 18.6632 94.8075 18.7788 93.883 18.7788ZM91.1588 10.9777H96.6319V10.9034C96.6319 10.2595 96.5246 9.69817 96.31 9.21937C96.0953 8.72407 95.7816 8.34433 95.3689 8.08017C94.9561 7.79949 94.4608 7.65916 93.883 7.65916C93.3051 7.65916 92.8098 7.79949 92.3971 8.08017C91.9843 8.34433 91.6706 8.72407 91.456 9.21937C91.2579 9.69817 91.1588 10.2595 91.1588 10.9034V10.9777Z" fill="white"/>
</svg>
