<svg width="130" height="30" viewBox="0 0 130 30" fill="none" xmlns="http://www.w3.org/2000/svg">
<path d="M0.76978 23.2859C0.555953 23.2859 0.374199 23.211 0.224519 23.0613C0.0748397 22.9117 0 22.7299 0 22.5161V1.63578C0 1.40057 0.0748397 1.20813 0.224519 1.05845C0.374199 0.908767 0.555953 0.833927 0.76978 0.833927H14.69C14.9252 0.833927 15.1176 0.908767 15.2673 1.05845C15.417 1.20813 15.4918 1.40057 15.4918 1.63578V3.88098C15.4918 4.11619 15.417 4.30863 15.2673 4.45831C15.1176 4.58661 14.9252 4.65075 14.69 4.65075H4.39416V10.7448H14.0485C14.2837 10.7448 14.4761 10.8197 14.6258 10.9694C14.7755 11.119 14.8503 11.3115 14.8503 11.5467V13.7919C14.8503 14.0057 14.7755 14.1875 14.6258 14.3372C14.4761 14.4868 14.2837 14.5617 14.0485 14.5617H4.39416V22.5161C4.39416 22.7299 4.31932 22.9117 4.16964 23.0613C4.01996 23.211 3.82752 23.2859 3.59231 23.2859H0.76978Z" fill="#D64D00"/>
<path d="M24.0163 23.6066C22.7119 23.6066 21.5787 23.3179 20.6164 22.7406C19.6756 22.1419 18.9486 21.3079 18.4354 20.2388C17.9222 19.1483 17.6656 17.8653 17.6656 16.3899V7.37706C17.6656 7.16323 17.7404 6.98148 17.8901 6.8318C18.0398 6.68212 18.2216 6.60728 18.4354 6.60728H21.2579C21.4931 6.60728 21.6749 6.68212 21.8032 6.8318C21.9529 6.98148 22.0277 7.16323 22.0277 7.37706V16.1975C22.0277 18.8489 23.1931 20.1747 25.5238 20.1747C26.6357 20.1747 27.5124 19.8218 28.1539 19.1162C28.8167 18.4106 29.1482 17.4377 29.1482 16.1975V7.37706C29.1482 7.16323 29.223 6.98148 29.3727 6.8318C29.5224 6.68212 29.7041 6.60728 29.9179 6.60728H32.7405C32.9543 6.60728 33.136 6.68212 33.2857 6.8318C33.4354 6.98148 33.5102 7.16323 33.5102 7.37706V22.5161C33.5102 22.7299 33.4354 22.9117 33.2857 23.0613C33.136 23.211 32.9543 23.2859 32.7405 23.2859H30.1425C29.9072 23.2859 29.7148 23.211 29.5651 23.0613C29.4368 22.9117 29.3727 22.7299 29.3727 22.5161V21.201C28.7953 21.9494 28.079 22.5375 27.2237 22.9651C26.3684 23.3928 25.2993 23.6066 24.0163 23.6066Z" fill="#D64D00"/>
<path d="M37.715 23.2859C37.5011 23.2859 37.3194 23.211 37.1697 23.0613C37.02 22.9117 36.9452 22.7299 36.9452 22.5161V7.40913C36.9452 7.17392 37.02 6.98148 37.1697 6.8318C37.3194 6.68212 37.5011 6.60728 37.715 6.60728H40.313C40.5268 6.60728 40.7086 6.68212 40.8582 6.8318C41.0293 6.98148 41.1148 7.17392 41.1148 7.40913V8.72418C41.6066 8.03993 42.2374 7.51605 43.0072 7.15254C43.7984 6.78903 44.7071 6.60728 45.7335 6.60728H47.0486C47.2838 6.60728 47.4655 6.68212 47.5938 6.8318C47.7435 6.98148 47.8183 7.16323 47.8183 7.37706V9.6864C47.8183 9.90023 47.7435 10.082 47.5938 10.2317C47.4655 10.3813 47.2838 10.4562 47.0486 10.4562H44.5468C43.5204 10.4562 42.7185 10.7448 42.1412 11.3222C41.5853 11.8781 41.3073 12.6693 41.3073 13.6957V22.5161C41.3073 22.7299 41.2324 22.9117 41.0828 23.0613C40.9331 23.211 40.7406 23.2859 40.5054 23.2859H37.715Z" fill="#D64D00"/>
<path d="M50.2878 23.2859C50.074 23.2859 49.8922 23.211 49.7425 23.0613C49.5929 22.9117 49.518 22.7299 49.518 22.5161V7.37706C49.518 7.16323 49.5929 6.98148 49.7425 6.8318C49.8922 6.68212 50.074 6.60728 50.2878 6.60728H52.9179C53.1317 6.60728 53.3135 6.68212 53.4631 6.8318C53.6128 6.98148 53.6877 7.16323 53.6877 7.37706V8.6921C54.2436 8.00785 54.9492 7.44121 55.8046 6.99217C56.6813 6.52175 57.7611 6.28654 59.044 6.28654C60.3484 6.28654 61.4817 6.5859 62.4439 7.18461C63.4061 7.76195 64.1438 8.58519 64.657 9.65433C65.1916 10.7235 65.4589 12.0064 65.4589 13.5032V22.5161C65.4589 22.7299 65.384 22.9117 65.2344 23.0613C65.0847 23.211 64.9029 23.2859 64.6891 23.2859H61.8666C61.6527 23.2859 61.471 23.211 61.3213 23.0613C61.1716 22.9117 61.0968 22.7299 61.0968 22.5161V13.6957C61.0968 12.4555 60.7867 11.4826 60.1666 10.7769C59.5679 10.0713 58.6912 9.71848 57.5366 9.71848C56.4247 9.71848 55.5373 10.0713 54.8744 10.7769C54.2115 11.4826 53.8801 12.4555 53.8801 13.6957V22.5161C53.8801 22.7299 53.8053 22.9117 53.6556 23.0613C53.5059 23.211 53.3242 23.2859 53.1103 23.2859H50.2878Z" fill="#D64D00"/>
<path d="M69.501 23.2859C69.2871 23.2859 69.1054 23.211 68.9557 23.0613C68.806 22.9117 68.7312 22.7299 68.7312 22.5161V7.37706C68.7312 7.16323 68.806 6.98148 68.9557 6.8318C69.1054 6.68212 69.2871 6.60728 69.501 6.60728H72.1631C72.3984 6.60728 72.5801 6.68212 72.7084 6.8318C72.8581 6.98148 72.9329 7.16323 72.9329 7.37706V22.5161C72.9329 22.7299 72.8581 22.9117 72.7084 23.0613C72.5801 23.211 72.3984 23.2859 72.1631 23.2859H69.501ZM69.3727 3.8489C69.1589 3.8489 68.9771 3.77406 68.8274 3.62438C68.6777 3.4747 68.6029 3.29295 68.6029 3.07912V0.76978C68.6029 0.555952 68.6777 0.374198 68.8274 0.224518C68.9771 0.0748394 69.1589 0 69.3727 0H72.2914C72.5266 0 72.7191 0.0748394 72.8688 0.224518C73.0184 0.374198 73.0933 0.555952 73.0933 0.76978V3.07912C73.0933 3.29295 73.0184 3.4747 72.8688 3.62438C72.7191 3.77406 72.5266 3.8489 72.2914 3.8489H69.3727Z" fill="#D64D00"/>
<path d="M88.2859 29.3799C88.0721 29.3799 87.8903 29.3051 87.7407 29.1554C87.591 29.0057 87.5161 28.824 87.5161 28.6102V21.3293C87.003 22.0136 86.3401 22.5695 85.5275 22.9972C84.715 23.4035 83.7314 23.6066 82.5767 23.6066C81.4862 23.6066 80.5133 23.4141 79.658 23.0293C78.824 22.6444 78.1184 22.1205 77.5411 21.4576C76.9851 20.7734 76.5575 19.9822 76.2581 19.0841C75.9587 18.1647 75.7877 17.1704 75.7449 16.1012C75.7235 15.7163 75.7128 15.3315 75.7128 14.9466C75.7128 14.5617 75.7235 14.1875 75.7449 13.824C75.8091 12.7121 75.9801 11.6964 76.2581 10.7769C76.5575 9.85746 76.9851 9.0663 77.5411 8.40343C78.1184 7.71918 78.824 7.19531 79.658 6.8318C80.5133 6.46829 81.4862 6.28654 82.5767 6.28654C83.8169 6.28654 84.854 6.51106 85.6879 6.9601C86.5432 7.40913 87.2168 7.97578 87.7086 8.66003V7.37706C87.7086 7.16323 87.7834 6.98148 87.9331 6.8318C88.0828 6.68212 88.2645 6.60728 88.4784 6.60728H91.0443C91.2581 6.60728 91.4399 6.68212 91.5896 6.8318C91.7392 6.98148 91.8141 7.16323 91.8141 7.37706V28.6102C91.8141 28.824 91.7392 29.0057 91.5896 29.1554C91.4399 29.3051 91.2581 29.3799 91.0443 29.3799H88.2859ZM83.7955 20.1747C84.6508 20.1747 85.3458 19.9822 85.8804 19.5973C86.4149 19.2124 86.8105 18.7313 87.0671 18.154C87.3451 17.5553 87.4948 16.9352 87.5161 16.2937C87.5589 15.8874 87.5803 15.4704 87.5803 15.0428C87.5803 14.6151 87.5589 14.2089 87.5161 13.824C87.4948 13.1611 87.3558 12.5196 87.0992 11.8995C86.8426 11.258 86.447 10.7342 85.9124 10.3279C85.3779 9.92161 84.6722 9.71848 83.7955 9.71848C82.8975 9.71848 82.1811 9.92161 81.6466 10.3279C81.112 10.7128 80.7271 11.226 80.4919 11.8674C80.2781 12.5089 80.1498 13.2146 80.107 13.9843C80.0642 14.6258 80.0642 15.2673 80.107 15.9088C80.1498 16.6786 80.2781 17.3842 80.4919 18.0257C80.7271 18.6672 81.112 19.191 81.6466 19.5973C82.1811 19.9822 82.8975 20.1747 83.7955 20.1747Z" fill="#D64D00"/>
<path d="M101.477 23.6066C100.172 23.6066 99.039 23.3179 98.0768 22.7406C97.136 22.1419 96.409 21.3079 95.8958 20.2388C95.3826 19.1483 95.126 17.8653 95.126 16.3899V7.37706C95.126 7.16323 95.2008 6.98148 95.3505 6.8318C95.5002 6.68212 95.6819 6.60728 95.8958 6.60728H98.7183C98.9535 6.60728 99.1353 6.68212 99.2636 6.8318C99.4132 6.98148 99.4881 7.16323 99.4881 7.37706V16.1975C99.4881 18.8489 100.653 20.1747 102.984 20.1747C104.096 20.1747 104.973 19.8218 105.614 19.1162C106.277 18.4106 106.609 17.4377 106.609 16.1975V7.37706C106.609 7.16323 106.683 6.98148 106.833 6.8318C106.983 6.68212 107.165 6.60728 107.378 6.60728H110.201C110.415 6.60728 110.596 6.68212 110.746 6.8318C110.896 6.98148 110.971 7.16323 110.971 7.37706V22.5161C110.971 22.7299 110.896 22.9117 110.746 23.0613C110.596 23.211 110.415 23.2859 110.201 23.2859H107.603C107.368 23.2859 107.175 23.211 107.026 23.0613C106.897 22.9117 106.833 22.7299 106.833 22.5161V21.201C106.256 21.9494 105.539 22.5375 104.684 22.9651C103.829 23.3928 102.76 23.6066 101.477 23.6066Z" fill="#D64D00"/>
<path d="M121.59 23.6066C119.217 23.6066 117.335 22.9223 115.945 21.5538C114.555 20.1853 113.807 18.2395 113.7 15.7163C113.679 15.5025 113.668 15.2352 113.668 14.9145C113.668 14.5724 113.679 14.3051 113.7 14.1126C113.785 12.4875 114.149 11.0977 114.79 9.943C115.453 8.76694 116.362 7.86887 117.517 7.24876C118.671 6.60728 120.029 6.28654 121.59 6.28654C123.322 6.28654 124.776 6.65005 125.952 7.37706C127.128 8.08269 128.016 9.07699 128.614 10.36C129.213 11.6215 129.513 13.0863 129.513 14.7541V15.4277C129.513 15.6415 129.438 15.8233 129.288 15.9729C129.138 16.1226 128.946 16.1975 128.711 16.1975H118.062C118.062 16.1975 118.062 16.2295 118.062 16.2937C118.062 16.3578 118.062 16.4113 118.062 16.4541C118.083 17.2024 118.222 17.8974 118.479 18.5389C118.757 19.159 119.153 19.6615 119.666 20.0464C120.2 20.4312 120.831 20.6237 121.558 20.6237C122.157 20.6237 122.659 20.5382 123.066 20.3671C123.472 20.1747 123.803 19.9608 124.06 19.7256C124.316 19.4904 124.498 19.298 124.605 19.1483C124.798 18.8917 124.947 18.742 125.054 18.6992C125.183 18.6351 125.364 18.603 125.599 18.603H128.358C128.572 18.603 128.743 18.6672 128.871 18.7955C129.021 18.9238 129.085 19.0841 129.063 19.2766C129.042 19.6187 128.86 20.0357 128.518 20.5275C128.197 21.0193 127.727 21.5004 127.107 21.9708C126.487 22.4412 125.706 22.8368 124.766 23.1576C123.846 23.4569 122.788 23.6066 121.59 23.6066ZM118.062 13.5032H125.15V13.407C125.15 12.5731 125.011 11.8461 124.733 11.226C124.455 10.5845 124.049 10.0927 123.515 9.75055C122.98 9.38704 122.339 9.20529 121.59 9.20529C120.842 9.20529 120.2 9.38704 119.666 9.75055C119.131 10.0927 118.725 10.5845 118.447 11.226C118.19 11.8461 118.062 12.5731 118.062 13.407V13.5032Z" fill="#D64D00"/>
</svg>
