<svg width="153" height="48" viewBox="0 0 153 48" fill="none" xmlns="http://www.w3.org/2000/svg">
<path d="M1.65119 47.3333C1.16684 47.3333 0.770557 47.1778 0.462334 46.8667C0.154111 46.5111 0 46.1111 0 45.6667V2.33334C0 1.84444 0.154111 1.44444 0.462334 1.13333C0.770557 0.822222 1.16684 0.666666 1.65119 0.666666H10.3695C10.8538 0.666666 11.2501 0.822222 11.5583 1.13333C11.8666 1.44444 12.0207 1.84444 12.0207 2.33334V37.2667H32.0331C32.5175 37.2667 32.9138 37.4444 33.222 37.8C33.5302 38.1111 33.6843 38.5111 33.6843 39V45.6667C33.6843 46.1111 33.5302 46.5111 33.222 46.8667C32.9138 47.1778 32.5175 47.3333 32.0331 47.3333H1.65119Z" fill="white"/>
<path d="M51.1782 48C47.1273 48 43.6047 47.3333 40.6106 46C37.6164 44.6667 35.2827 42.6667 33.6095 40C31.9363 37.2889 31.0116 33.9111 30.8355 29.8667C30.7915 27.9556 30.7695 26.0444 30.7695 24.1333C30.7695 22.1778 30.7915 20.2444 30.8355 18.3333C31.0116 14.3333 31.9363 10.9778 33.6095 8.26667C35.3267 5.51111 37.6824 3.44445 40.6766 2.06667C43.7148 0.688889 47.2153 0 51.1782 0C55.1851 0 58.6856 0.688889 61.6798 2.06667C64.6739 3.44445 67.0296 5.51111 68.7469 8.26667C70.4641 10.9778 71.3888 14.3333 71.5209 18.3333C71.6089 20.2444 71.653 22.1778 71.653 24.1333C71.653 26.0444 71.6089 27.9556 71.5209 29.8667C71.3888 33.9111 70.4641 37.2889 68.7469 40C67.0737 42.6667 64.74 44.6667 61.7458 46C58.7517 47.3333 55.2291 48 51.1782 48ZM51.1782 38.4C53.5119 38.4 55.4052 37.6889 56.8583 36.2667C58.3554 34.8444 59.1479 32.5778 59.236 29.4667C59.3241 27.5111 59.3681 25.6667 59.3681 23.9333C59.3681 22.2 59.3241 20.4 59.236 18.5333C59.1479 16.4444 58.7517 14.7556 58.0472 13.4667C57.3867 12.1333 56.462 11.1556 55.2732 10.5333C54.0843 9.91111 52.7193 9.6 51.1782 9.6C49.6811 9.6 48.3381 9.91111 47.1493 10.5333C45.9604 11.1556 45.0137 12.1333 44.3092 13.4667C43.6047 14.7556 43.2084 16.4444 43.1204 18.5333C43.0763 20.4 43.0543 22.2 43.0543 23.9333C43.0543 25.6667 43.0763 27.5111 43.1204 29.4667C43.2525 32.5778 44.045 34.8444 45.4981 36.2667C46.9952 37.6889 48.8885 38.4 51.1782 38.4Z" fill="white"/>
<path d="M91.7919 48C87.6088 48 83.9982 47.3111 80.96 45.9333C77.9659 44.5111 75.6322 42.4667 73.959 39.8C72.3298 37.0889 71.4271 33.8 71.251 29.9333C71.207 28.0222 71.185 26 71.185 23.8667C71.185 21.6889 71.207 19.6222 71.251 17.6667C71.4271 13.8889 72.3518 10.6889 74.025 8.06667C75.6982 5.44445 78.0539 3.44445 81.0921 2.06667C84.1303 0.688889 87.6969 0 91.7919 0C95.0942 0 98.0223 0.422222 100.576 1.26667C103.13 2.06667 105.266 3.15556 106.983 4.53333C108.744 5.91111 110.087 7.42222 111.012 9.06667C111.936 10.7111 112.421 12.3333 112.465 13.9333C112.465 14.3333 112.311 14.6667 112.002 14.9333C111.738 15.2 111.408 15.3333 111.012 15.3333H101.369C100.884 15.3333 100.51 15.2667 100.246 15.1333C100.026 14.9556 99.8277 14.7111 99.6515 14.4C99.3433 13.7333 98.881 13.0444 98.2645 12.3333C97.6921 11.5778 96.8775 10.9333 95.8208 10.4C94.808 9.86667 93.4651 9.6 91.7919 9.6C89.3261 9.6 87.3667 10.2667 85.9136 11.6C84.4606 12.9333 83.668 15.0667 83.5359 18C83.4038 21.8222 83.4038 25.6889 83.5359 29.6C83.668 32.7111 84.4826 34.9556 85.9797 36.3333C87.4767 37.7111 89.4802 38.4 91.99 38.4C93.6192 38.4 95.0722 38.1111 96.3491 37.5333C97.6701 36.9556 98.7048 36.0667 99.4534 34.8667C100.202 33.6222 100.576 32.0444 100.576 30.1333V28.8667H94.3677C93.8834 28.8667 93.4871 28.7111 93.1788 28.4C92.8706 28.0444 92.7165 27.6222 92.7165 27.1333V22.2C92.7165 21.7111 92.8706 21.3111 93.1788 21C93.4871 20.6444 93.8834 20.4667 94.3677 20.4667H111.012C111.496 20.4667 111.892 20.6444 112.201 21C112.509 21.3111 112.663 21.7111 112.663 22.2V29.8C112.663 33.6222 111.804 36.8889 110.087 39.6C108.37 42.3111 105.926 44.4 102.756 45.8667C99.6295 47.2889 95.9749 48 91.7919 48Z" fill="white"/>
<path d="M132.525 48C128.474 48 124.952 47.3333 121.958 46C118.963 44.6667 116.63 42.6667 114.957 40C113.283 37.2889 112.359 33.9111 112.183 29.8667C112.138 27.9556 112.116 26.0444 112.116 24.1333C112.116 22.1778 112.138 20.2444 112.183 18.3333C112.359 14.3333 113.283 10.9778 114.957 8.26667C116.674 5.51111 119.029 3.44445 122.024 2.06667C125.062 0.688889 128.562 0 132.525 0C136.532 0 140.033 0.688889 143.027 2.06667C146.021 3.44445 148.377 5.51111 150.094 8.26667C151.811 10.9778 152.736 14.3333 152.868 18.3333C152.956 20.2444 153 22.1778 153 24.1333C153 26.0444 152.956 27.9556 152.868 29.8667C152.736 33.9111 151.811 37.2889 150.094 40C148.421 42.6667 146.087 44.6667 143.093 46C140.099 47.3333 136.576 48 132.525 48ZM132.525 38.4C134.859 38.4 136.752 37.6889 138.205 36.2667C139.702 34.8444 140.495 32.5778 140.583 29.4667C140.671 27.5111 140.715 25.6667 140.715 23.9333C140.715 22.2 140.671 20.4 140.583 18.5333C140.495 16.4444 140.099 14.7556 139.394 13.4667C138.734 12.1333 137.809 11.1556 136.62 10.5333C135.431 9.91111 134.066 9.6 132.525 9.6C131.028 9.6 129.685 9.91111 128.496 10.5333C127.307 11.1556 126.361 12.1333 125.656 13.4667C124.952 14.7556 124.555 16.4444 124.467 18.5333C124.423 20.4 124.401 22.2 124.401 23.9333C124.401 25.6667 124.423 27.5111 124.467 29.4667C124.599 32.5778 125.392 34.8444 126.845 36.2667C128.342 37.6889 130.236 38.4 132.525 38.4Z" fill="white"/>
</svg>
