<svg width="55" height="39" viewBox="0 0 55 39" fill="none" xmlns="http://www.w3.org/2000/svg">
<path d="M9.77157 19.2214L14.9365 18.3857C17.3562 18.3857 19.4966 19.2214 21.3579 20.8929C23.3122 22.4714 24.2893 24.8393 24.2893 27.9964C24.2893 31.0607 23.2656 33.6607 21.2183 35.7964C19.1709 37.9321 16.286 39 12.5635 39C8.93401 39 5.90947 37.6071 3.48985 34.8214C1.16328 32.0357 0 28.4607 0 24.0964C0 19.6393 1.67513 15.2286 5.02538 10.8643C8.4687 6.49999 13.3545 2.87857 19.6827 0L20.6599 2.36785C11.912 7.19642 7.53807 12.0714 7.53807 16.9929C7.53807 18.4786 8.28257 19.2214 9.77157 19.2214ZM40.4822 19.2214L45.6472 18.3857C48.0668 18.3857 50.2073 19.2214 52.0685 20.8929C54.0228 22.4714 55 24.8393 55 27.9964C55 31.0607 53.9763 33.6607 51.9289 35.7964C49.8816 37.9321 46.9966 39 43.2741 39C39.6447 39 36.6201 37.6071 34.2005 34.8214C31.8739 32.0357 30.7107 28.4607 30.7107 24.0964C30.7107 19.6393 32.3858 15.2286 35.736 10.8643C39.1794 6.49999 44.0651 2.87857 50.3934 0L51.3706 2.36785C42.6227 7.19642 38.2487 12.0714 38.2487 16.9929C38.2487 18.4786 38.9932 19.2214 40.4822 19.2214Z" fill="#5C59D4"/>
</svg>
