<svg width="25" height="24" viewBox="0 0 25 24" fill="none" xmlns="http://www.w3.org/2000/svg">
<path d="M21.5 22H3.5M19.5 22V15M5.5 22V15" stroke="#5C59D4" stroke-width="1.5" stroke-linecap="round"/>
<path d="M17.028 2H7.97201C6.76901 2 6.16801 2 5.68501 2.299C5.20101 2.597 4.93201 3.135 4.39501 4.211L2.99001 7.76C2.66601 8.58 2.38201 9.546 2.92801 10.239C3.18523 10.566 3.53803 10.8047 3.93728 10.9218C4.33653 11.0388 4.76235 11.0285 5.15543 10.8921C5.54851 10.7558 5.88929 10.5002 6.13029 10.1611C6.3713 9.82192 6.50054 9.41606 6.50001 9C6.50001 9.53043 6.71072 10.0391 7.08579 10.4142C7.46087 10.7893 7.96957 11 8.50001 11C9.03044 11 9.53915 10.7893 9.91422 10.4142C10.2893 10.0391 10.5 9.53043 10.5 9C10.5 9.53043 10.7107 10.0391 11.0858 10.4142C11.4609 10.7893 11.9696 11 12.5 11C13.0304 11 13.5391 10.7893 13.9142 10.4142C14.2893 10.0391 14.5 9.53043 14.5 9C14.5 9.53043 14.7107 10.0391 15.0858 10.4142C15.4609 10.7893 15.9696 11 16.5 11C17.0304 11 17.5391 10.7893 17.9142 10.4142C18.2893 10.0391 18.5 9.53043 18.5 9C18.5 9.41573 18.6294 9.82114 18.8705 10.1599C19.1115 10.4986 19.4521 10.7538 19.8449 10.8899C20.2377 11.0261 20.6631 11.0365 21.0621 10.9197C21.4611 10.8028 21.8137 10.5646 22.071 10.238C22.617 9.545 22.333 8.579 22.009 7.759L20.605 4.211C20.068 3.135 19.799 2.597 19.315 2.299C18.832 2 18.231 2 17.028 2Z" stroke="#5C59D4" stroke-width="1.5" stroke-linejoin="round"/>
</svg>
