<svg width="23" height="21" viewBox="0 0 23 21" fill="none" xmlns="http://www.w3.org/2000/svg">
<path d="M10.646 6.023C11.026 5.34 11.216 5 11.5 5C11.784 5 11.974 5.34 12.354 6.023L12.452 6.199C12.56 6.393 12.614 6.489 12.698 6.553C12.783 6.617 12.888 6.641 13.098 6.688L13.288 6.732C14.026 6.899 14.395 6.982 14.483 7.264C14.571 7.547 14.319 7.841 13.816 8.429L13.686 8.581C13.543 8.748 13.471 8.831 13.439 8.935C13.407 9.039 13.418 9.15 13.439 9.373L13.459 9.576C13.535 10.361 13.573 10.754 13.344 10.928C13.114 11.102 12.768 10.943 12.077 10.625L11.899 10.543C11.702 10.453 11.604 10.408 11.5 10.408C11.396 10.408 11.298 10.453 11.101 10.543L10.923 10.625C10.232 10.944 9.88601 11.102 9.65601 10.928C9.42601 10.754 9.46501 10.361 9.54101 9.576L9.56101 9.373C9.58201 9.15 9.59301 9.039 9.56101 8.935C9.52901 8.832 9.45701 8.748 9.31401 8.581L9.18401 8.429C8.68101 7.841 8.42901 7.547 8.51701 7.264C8.60501 6.982 8.97401 6.899 9.71201 6.732L9.90201 6.688C10.112 6.641 10.217 6.618 10.302 6.553C10.386 6.489 10.44 6.393 10.548 6.199L10.646 6.023Z" stroke="#5C59D4" stroke-width="1.5"/>
<path d="M18.5 8C18.5 8.91925 18.3189 9.82951 17.9672 10.6788C17.6154 11.5281 17.0998 12.2997 16.4497 12.9497C15.7997 13.5998 15.0281 14.1154 14.1788 14.4672C13.3295 14.8189 12.4193 15 11.5 15C10.5807 15 9.67049 14.8189 8.82122 14.4672C7.97194 14.1154 7.20026 13.5998 6.55025 12.9497C5.90024 12.2997 5.38463 11.5281 5.03284 10.6788C4.68106 9.82951 4.5 8.91925 4.5 8C4.5 6.14348 5.2375 4.36301 6.55025 3.05025C7.86301 1.7375 9.64348 1 11.5 1C13.3565 1 15.137 1.7375 16.4497 3.05025C17.7625 4.36301 18.5 6.14348 18.5 8Z" stroke="#5C59D4" stroke-width="1.5"/>
<path d="M4.95599 11L2.49199 13.551C1.95199 14.11 1.68199 14.39 1.58799 14.627C1.37499 15.166 1.55799 15.765 2.02099 16.049C2.22499 16.173 2.59199 16.212 3.32599 16.29C3.74099 16.334 3.94799 16.355 4.12099 16.422C4.31442 16.497 4.48925 16.6131 4.63342 16.7623C4.77759 16.9114 4.88765 17.0901 4.95599 17.286C5.01999 17.466 5.04099 17.68 5.08399 18.11C5.15799 18.87 5.19599 19.25 5.31599 19.46C5.58999 19.94 6.16899 20.128 6.68899 19.908C6.91899 19.812 7.18899 19.533 7.72899 18.973L11.5 15.068L15.271 18.973C15.811 19.533 16.081 19.812 16.311 19.908C16.831 20.128 17.41 19.94 17.684 19.46C17.804 19.25 17.841 18.87 17.916 18.11C17.959 17.68 17.98 17.466 18.044 17.286C18.188 16.884 18.49 16.571 18.879 16.422C19.052 16.355 19.259 16.334 19.674 16.29C20.408 16.212 20.775 16.173 20.979 16.049C21.442 15.765 21.625 15.166 21.412 14.627C21.318 14.39 21.048 14.11 20.508 13.551L18.044 11" stroke="#5C59D4" stroke-width="1.5"/>
</svg>
