<svg width="22" height="21" viewBox="0 0 22 21" fill="none" xmlns="http://www.w3.org/2000/svg">
<path d="M2.512 14.762L4.202 9.69299C4.968 7.39499 5.351 6.24599 6.257 6.03299C7.163 5.81799 8.02 6.67499 9.732 8.38799L13.112 11.767C14.824 13.48 15.681 14.336 15.467 15.242C15.253 16.148 14.104 16.532 11.806 17.297L6.737 18.987C3.972 19.909 2.589 20.37 1.859 19.64C1.129 18.91 1.59 17.527 2.512 14.762Z" stroke="#5C59D4" stroke-width="1.5" stroke-linecap="round"/>
<path d="M10.735 17.346C10.735 17.346 9.97701 15.065 9.97701 13.556C9.97701 12.046 10.735 9.76399 10.735 9.76399M6.56501 18.484C6.56501 18.484 5.92501 15.731 5.80701 13.934C5.61201 10.965 6.56501 6.35299 6.56501 6.35299M13.01 9.00599L13.153 8.28599C13.299 7.55899 13.823 6.96599 14.526 6.73199C14.8715 6.61672 15.1803 6.41218 15.4212 6.1391C15.6622 5.86602 15.8267 5.53411 15.898 5.17699L16.042 4.45699M16.07 12.253L16.282 12.376C16.939 12.756 17.765 12.672 18.333 12.169C18.5847 11.9456 18.8952 11.7989 19.2276 11.7463C19.56 11.6936 19.9006 11.7373 20.209 11.872L20.5 12M8.29501 1.77899C8.13097 2.04721 8.06199 2.36283 8.09918 2.67503C8.13637 2.98722 8.27756 3.27781 8.50001 3.49999L8.59701 3.59799C8.99101 3.99099 9.13601 4.56799 8.97501 5.10099" stroke="#5C59D4" stroke-width="1.5" stroke-linecap="round"/>
<path d="M5.428 2.94002C5.47791 2.89025 5.53712 2.85079 5.60227 2.82391C5.66742 2.79702 5.73723 2.78323 5.80771 2.78333C5.87819 2.78342 5.94796 2.79739 6.01304 2.82445C6.07812 2.85151 6.13723 2.89112 6.187 2.94102C6.23677 2.99092 6.27623 3.05014 6.30311 3.11529C6.33 3.18044 6.34379 3.25025 6.3437 3.32073C6.34361 3.39121 6.32963 3.46098 6.30257 3.52606C6.27552 3.59114 6.23591 3.65025 6.186 3.70002C6.08522 3.80054 5.94864 3.8569 5.8063 3.85671C5.66396 3.85653 5.52752 3.7998 5.427 3.69902C5.32649 3.59824 5.27012 3.46165 5.27031 3.31931C5.2705 3.17697 5.32722 3.04054 5.428 2.94002ZM10.657 6.15702C10.7068 6.10718 10.766 6.06765 10.8311 6.04068C10.8962 6.01371 10.966 5.99983 11.0365 5.99983C11.107 5.99983 11.1768 6.01371 11.2419 6.04068C11.307 6.06765 11.3662 6.10718 11.416 6.15702C11.4658 6.20686 11.5054 6.26602 11.5323 6.33114C11.5593 6.39625 11.5732 6.46604 11.5732 6.53652C11.5732 6.607 11.5593 6.67679 11.5323 6.7419C11.5054 6.80702 11.4658 6.86618 11.416 6.91602C11.3154 7.01667 11.1788 7.07321 11.0365 7.07321C10.8942 7.07321 10.7577 7.01667 10.657 6.91602C10.5564 6.81537 10.4998 6.67886 10.4998 6.53652C10.4998 6.39418 10.5564 6.25767 10.657 6.15702ZM15.657 9.15702C15.7068 9.10718 15.766 9.06765 15.8311 9.04068C15.8962 9.01371 15.966 8.99983 16.0365 8.99983C16.107 8.99983 16.1768 9.01371 16.2419 9.04068C16.307 9.06765 16.3662 9.10718 16.416 9.15702C16.4658 9.20686 16.5054 9.26602 16.5323 9.33114C16.5593 9.39625 16.5732 9.46604 16.5732 9.53652C16.5732 9.607 16.5593 9.67679 16.5323 9.7419C16.5054 9.80702 16.4658 9.86618 16.416 9.91602C16.3154 10.0167 16.1788 10.0732 16.0365 10.0732C15.8942 10.0732 15.7577 10.0167 15.657 9.91602C15.5564 9.81537 15.4998 9.67886 15.4998 9.53652C15.4998 9.39418 15.5564 9.25767 15.657 9.15702ZM17.558 14.313C17.6078 14.2632 17.667 14.2237 17.7321 14.1967C17.7972 14.1697 17.867 14.1558 17.9375 14.1558C18.008 14.1558 18.0778 14.1697 18.1429 14.1967C18.208 14.2237 18.2672 14.2632 18.317 14.313C18.3668 14.3629 18.4064 14.422 18.4333 14.4871C18.4603 14.5523 18.4742 14.622 18.4742 14.6925C18.4742 14.763 18.4603 14.8328 18.4333 14.8979C18.4064 14.963 18.3668 15.0222 18.317 15.072C18.2164 15.1727 18.0798 15.2292 17.9375 15.2292C17.7952 15.2292 17.6587 15.1727 17.558 15.072C17.4574 14.9714 17.4008 14.8349 17.4008 14.6925C17.4008 14.5502 17.4574 14.4137 17.558 14.313Z" fill="#5C59D4"/>
<path d="M17.862 6.71402C17.192 7.38402 17.672 9.32802 17.672 9.32802C17.672 9.32802 19.616 9.80902 20.286 9.13802C20.996 8.42802 20.594 7.49802 19.5 7.50002C19.503 6.40602 18.572 6.00402 17.862 6.71402Z" stroke="#5C59D4" stroke-linejoin="round"/>
<path d="M13.688 2.41701L13.661 2.51501C13.631 2.62101 13.615 2.67501 13.622 2.72701C13.629 2.77901 13.658 2.82501 13.715 2.91601L13.768 2.99801C13.969 3.31801 14.07 3.47801 14.002 3.60901C13.932 3.74001 13.74 3.75501 13.354 3.78501L13.254 3.79301C13.144 3.80201 13.09 3.80601 13.042 3.83101C12.994 3.85601 12.958 3.89901 12.887 3.98601L12.822 4.06501C12.572 4.36901 12.447 4.52101 12.304 4.50201C12.161 4.48201 12.094 4.30401 11.963 3.94701L11.929 3.85501C11.891 3.75301 11.873 3.70301 11.836 3.66501C11.799 3.62901 11.748 3.61001 11.647 3.57301L11.555 3.53901C11.198 3.40701 11.02 3.34101 11 3.19901C10.98 3.05501 11.133 2.92901 11.437 2.67901L11.516 2.61401C11.602 2.54401 11.646 2.50801 11.671 2.46001C11.696 2.41201 11.701 2.35701 11.709 2.24701L11.717 2.14701C11.747 1.76201 11.762 1.56901 11.892 1.50001C12.023 1.43101 12.183 1.53201 12.503 1.73401L12.586 1.78601C12.676 1.84401 12.722 1.87201 12.775 1.87901C12.827 1.88701 12.88 1.87101 12.987 1.84101L13.084 1.81401C13.46 1.70701 13.647 1.65401 13.748 1.75401C13.848 1.85401 13.795 2.04201 13.688 2.41701Z" stroke="#5C59D4"/>
</svg>
