<svg width="23" height="22" viewBox="0 0 23 22" fill="none" xmlns="http://www.w3.org/2000/svg">
<path d="M16.5 1.12701C18.125 1.28701 19.22 1.64801 20.035 2.46501C21.5 3.92901 21.5 6.28601 21.5 11C21.5 15.714 21.5 18.071 20.035 19.536C18.572 21 16.214 21 11.5 21C6.786 21 4.429 21 2.964 19.536C1.5 18.07 1.5 15.714 1.5 11C1.5 6.28601 1.5 3.93001 2.964 2.46501C3.781 1.64801 4.874 1.28701 6.5 1.12701" stroke="#5C59D4" stroke-width="1.5" stroke-linecap="round"/>
<path d="M11.5 9V1M11.5 1L14.5 4M11.5 1L8.5 4" stroke="#5C59D4" stroke-width="1.5" stroke-linecap="round" stroke-linejoin="round"/>
<path d="M1.5 12H4.66C5.565 12 6.018 12 6.416 12.183C6.814 12.366 7.108 12.71 7.697 13.397L8.303 14.103C8.892 14.79 9.186 15.134 9.584 15.317C9.982 15.5 10.434 15.5 11.34 15.5H11.66C12.565 15.5 13.018 15.5 13.416 15.317C13.814 15.134 14.108 14.79 14.697 14.103L15.303 13.397C15.892 12.71 16.186 12.366 16.584 12.183C16.982 12 17.434 12 18.34 12H21.5" stroke="#5C59D4" stroke-width="1.5" stroke-linecap="round"/>
</svg>
